<svg width="716" height="280" viewBox="0 0 716 280" fill="none" xmlns="http://www.w3.org/2000/svg">
<path d="M471 245H681M564.333 186.667H587.667M529.333 128.333C550.777 98.0583 600.722 96.4017 622.667 128.333M499.105 199.71C494.917 182.023 492.828 173.18 495.57 166.367C497.273 162.132 500.19 158.48 503.97 155.867C510.037 151.667 519.183 151.667 537.523 151.667H614.488C632.805 151.667 641.963 151.667 648.03 155.867C651.81 158.48 654.727 162.132 656.43 166.367C659.172 173.18 657.083 182.023 652.895 199.71C648.777 217.14 646.712 225.843 641.578 232.108C638.342 236.058 634.28 239.252 629.678 241.465C622.352 245 613.322 245 595.273 245H556.727C538.678 245 529.66 245 522.333 241.465C517.732 239.252 513.67 236.058 510.433 232.108C505.277 225.843 503.223 217.14 499.105 199.71ZM599.333 58.3333C599.333 64.5217 596.875 70.4566 592.499 74.8325C588.123 79.2083 582.188 81.6667 576 81.6667C569.812 81.6667 563.877 79.2083 559.501 74.8325C555.125 70.4566 552.667 64.5217 552.667 58.3333C552.667 52.1449 555.125 46.21 559.501 41.8342C563.877 37.4583 569.812 35 576 35C582.188 35 588.123 37.4583 592.499 41.8342C596.875 46.21 599.333 52.1449 599.333 58.3333Z" stroke="white" stroke-width="9" stroke-linecap="round" stroke-linejoin="round"/>
<path d="M466 138.656L436.884 167.78L423.543 181.125L381.087 138.656L394.428 125.312L414.109 144.998V124.5C414.109 93.2808 388.71 67.875 357.5 67.875V49C377.518 49 396.716 56.9544 410.871 71.1134C425.026 85.2724 432.978 104.476 432.978 124.5V144.998L452.659 125.312L466 138.656ZM300.891 124.5V104.002L320.572 123.688L333.913 110.344L291.457 67.875L278.116 81.2196L249 110.344L262.341 123.688L282.022 104.002V124.5C282.022 144.524 289.974 163.728 304.129 177.887C318.284 192.046 337.482 200 357.5 200V181.125C326.29 181.125 300.891 155.719 300.891 124.5Z" fill="white"/>
<path d="M35 245H245M128.333 186.667H151.667M93.3333 128.333C114.777 98.0583 164.722 96.4017 186.667 128.333M63.105 199.71C58.9167 182.023 56.8283 173.18 59.57 166.367C61.2733 162.132 64.19 158.48 67.97 155.867C74.0367 151.667 83.1833 151.667 101.523 151.667H178.488C196.805 151.667 205.963 151.667 212.03 155.867C215.81 158.48 218.727 162.132 220.43 166.367C223.172 173.18 221.083 182.023 216.895 199.71C212.777 217.14 210.712 225.843 205.578 232.108C202.342 236.058 198.28 239.252 193.678 241.465C186.352 245 177.322 245 159.273 245H120.727C102.678 245 93.66 245 86.3333 241.465C81.7316 239.252 77.67 236.058 74.4333 232.108C69.2767 225.843 67.2233 217.14 63.105 199.71ZM163.333 58.3333C163.333 64.5217 160.875 70.4566 156.499 74.8325C152.123 79.2083 146.188 81.6667 140 81.6667C133.812 81.6667 127.877 79.2083 123.501 74.8325C119.125 70.4566 116.667 64.5217 116.667 58.3333C116.667 52.1449 119.125 46.21 123.501 41.8342C127.877 37.4583 133.812 35 140 35C146.188 35 152.123 37.4583 156.499 41.8342C160.875 46.21 163.333 52.1449 163.333 58.3333Z" stroke="white" stroke-width="9" stroke-linecap="round" stroke-linejoin="round"/>
</svg>
