<svg width="1092" height="1188" viewBox="0 0 1092 1188" fill="none" xmlns="http://www.w3.org/2000/svg">
<g clip-path="url(#clip0_102_6)">
<path d="M899.202 467.923C928.16 467.637 956.065 464.707 982.421 459.448C970.92 412.883 957.959 367.746 943.977 326.065C929.784 329.145 914.779 330.918 899.202 331.219V467.923ZM1288.46 803.387C1300.38 783.553 1309.64 763.358 1316.46 742.953C1304.35 759.151 1290.23 774.567 1274.28 789.022C1270.51 809.622 1264.31 829.246 1255.49 847.622C1260.83 841.582 1265.86 835.407 1270.6 829.081L1270.85 829.276C1277 820.862 1282.87 812.222 1288.46 803.387ZM1324.33 714.735C1333.26 674.827 1333.29 634.408 1325.88 594.649C1311.73 618.961 1293.24 641.8 1271.02 662.701C1278.79 701.467 1280.97 739.137 1276.55 774.297C1295.65 755.785 1311.72 735.816 1324.33 714.735ZM1323.01 580.826C1314.49 543.727 1299.56 507.305 1279.48 472.52C1266.07 494.353 1248.27 514.758 1226.74 533.284C1235.88 552.487 1243.99 571.81 1250.89 591.058C1258.24 611.538 1264.22 631.943 1268.76 652.108C1291.27 630.245 1309.6 606.294 1323.01 580.826ZM1274.12 463.475C1270.39 457.329 1266.51 451.244 1262.46 445.219C1239.45 410.96 1211.47 378.655 1179.77 349.204C1170.15 365.823 1157.2 381.329 1141.43 395.454C1173.11 436.489 1200.64 480.229 1222.56 524.675C1243.91 505.998 1261.34 485.443 1274.12 463.475ZM1172.78 342.803C1153.25 325.223 1132.43 308.71 1110.51 293.519C1090.75 279.831 1070.12 267.209 1048.86 255.805C1044.68 264.264 1039.06 272.258 1032.19 279.65C1069.64 311.956 1104.61 348.724 1135.75 388.151C1151.13 374.282 1163.64 359.046 1172.78 342.803ZM1040.67 251.462C1005.49 233.251 968.619 218.361 930.956 207.512C941.842 213.703 952.667 220.329 963.342 227.361C984.496 241.305 1005.14 256.841 1025.12 273.655C1031.59 266.758 1036.82 259.321 1040.67 251.462ZM850.053 190.803C815.998 186.581 781.808 185.935 748.13 189.376C745.183 195.536 743.093 201.937 741.966 208.534C776.261 199.593 812.465 193.583 850.053 190.803ZM737.515 190.593C693.297 196.243 650.086 209.09 609.296 230.186C604.094 242.507 600.786 255.294 599.614 268.441C639.051 244.16 683.705 224.716 732.268 211.148C733.065 204.086 734.854 197.219 737.515 190.593ZM596.862 236.932C563.92 255.579 532.723 279.876 504.036 310.363C503.449 311.745 502.878 313.113 502.322 314.51C496.067 330.347 492.203 346.8 490.925 363.644C510.08 339.393 532.692 317.064 558.312 297.065C568.401 289.177 578.985 281.679 589.976 274.542C590.427 261.635 592.788 249.088 596.862 236.932ZM487.888 328.499L486.625 329.972C470.507 359.091 457.442 390.134 447.804 422.65L448.526 422.845C446.632 429.442 445.083 436.128 443.865 442.83C453.623 419.57 466.162 397.377 481.212 376.506L481.197 375.92H481.212C481.227 359.707 483.528 343.885 487.888 328.499ZM518.093 283.377C544.51 258.87 572.701 239.021 602.154 223.439C608.95 208.353 618.422 194.019 630.24 180.661C616.994 186.401 603.959 193.358 591.209 201.607L591.194 201.592C582.233 209.285 573.543 217.279 565.183 225.633C555.38 235.415 546.044 245.662 537.158 256.3L537.564 256.646C530.287 265.271 523.777 274.211 518.093 283.377ZM615.957 216.497C656.326 197.189 698.845 185.604 742.221 180.676C746.266 173.358 751.378 166.402 757.482 159.925C721.262 157.251 685.434 161.113 650.838 172.757C636.404 186.19 624.617 200.886 615.957 216.497ZM753.723 179.519C787.507 176.619 821.727 177.671 855.796 182.224C827.154 171.555 798.212 164.268 769.465 161.022C763.285 166.777 758.008 172.983 753.723 179.519ZM937.948 199.939C974.423 210.757 1010.12 225.302 1044.25 242.943C1046.82 235.58 1048.18 227.902 1048.18 220.028L1048.15 218.285C1013.27 208.969 976.347 202.749 937.948 199.939ZM1052.51 247.3C1074.33 258.975 1095.49 271.897 1115.74 285.931C1137.31 300.882 1157.85 317.125 1177.17 334.374C1185.5 317.019 1190.01 298.628 1190.06 279.59C1150.86 254.723 1106.18 234.784 1057.42 220.855C1057.33 229.975 1055.63 238.826 1052.51 247.3ZM1184.3 340.835C1217.22 371.187 1246.29 404.604 1270.1 440.08C1273.23 444.738 1276.25 449.441 1279.2 454.174C1291.3 430.539 1298.1 405.401 1298.65 379.346C1278.43 351.789 1253.73 326.576 1225.22 304.308C1216.85 297.771 1208.14 291.506 1199.12 285.48C1198.23 304.758 1193.09 323.345 1184.3 340.835ZM1284.81 463.37C1304.7 496.937 1319.9 532.022 1329.36 567.859C1341.94 540.031 1348.71 510.536 1348.71 480.003V479.988C1339.7 448.705 1325.64 419.059 1307.24 391.562C1304.95 416.61 1297.21 440.711 1284.81 463.37ZM1332.77 582.013C1340.44 616.812 1342.62 652.213 1338.38 687.463C1342.57 677.847 1346.07 668.035 1348.81 658.043L1348.92 658.073C1356.01 626.789 1359.95 594.304 1360.39 560.977H1360.37C1360.27 543.772 1358.7 526.868 1355.76 510.355C1352.22 535.223 1344.38 559.204 1332.77 582.013ZM1228.55 874.804C1245.04 852.13 1256.23 826.632 1262.71 799.104C1242.57 815.888 1219.92 831.275 1195.09 844.963C1186.39 849.771 1177.4 854.339 1168.16 858.711C1165.32 885.562 1159.76 909.228 1151.37 928.701C1180.18 913.135 1206.11 894.984 1228.55 874.804ZM1265.7 784.349C1271.79 748.663 1270.51 709.987 1263.04 669.973C1250.27 681.273 1236.41 691.986 1221.51 702.008C1204.1 713.728 1185.27 724.472 1165.29 734.208C1168.92 763.508 1170.68 791.456 1170.46 817.331C1170.37 827.909 1169.92 838.141 1169.16 847.998C1176.49 844.422 1183.67 840.711 1190.66 836.864C1218.7 821.388 1243.9 803.732 1265.7 784.349ZM1260.93 659.47C1256.36 637.969 1250.08 616.121 1242.2 594.184C1235.66 575.943 1228.02 557.626 1219.42 539.4C1209.06 547.799 1197.93 555.808 1186.07 563.336C1170.37 573.313 1153.4 582.434 1135.34 590.698C1138.7 602.358 1141.84 613.973 1144.74 625.512C1153.23 659.44 1159.7 692.737 1164.03 724.547C1182.6 715.381 1200.11 705.284 1216.37 694.345C1232.5 683.497 1247.38 671.837 1260.93 659.47ZM1215.31 530.835C1193.59 486.389 1166.12 442.589 1134.43 401.479C1126.62 407.955 1118.23 414.055 1109.26 419.825C1099.5 426.106 1089.08 431.966 1078.09 437.36C1100 484.391 1118.32 533.33 1132.73 581.742C1149.93 573.809 1166.12 565.034 1181.11 555.523C1193.33 547.769 1204.76 539.52 1215.31 530.835ZM1128.76 394.176C1097.77 354.914 1062.93 318.282 1025.63 286.187C1020.61 290.83 1015.06 295.187 1009.05 299.229C1006.66 300.837 1004.18 302.399 1001.65 303.902C1026.61 339.272 1049.15 377.919 1069.01 418.293C1070.75 421.839 1072.47 425.415 1074.17 428.991C1084.78 423.777 1094.87 418.097 1104.28 412.042C1113.02 406.422 1121.18 400.472 1128.76 394.176ZM1018.52 280.146C999.005 263.783 978.858 248.667 958.245 235.069C947.705 228.112 937.031 221.576 926.265 215.446C951.239 239.276 974.618 266.578 996.239 296.374C998.87 294.826 1001.43 293.234 1003.88 291.566C1009.17 288.005 1014.07 284.203 1018.52 280.146ZM633.427 169.332C637.622 167.649 641.832 166.071 646.057 164.614C650.868 160.211 655.95 155.944 661.287 151.812C651.785 157.341 642.494 163.186 633.427 169.332ZM668.444 157.972C700.454 149.978 733.305 148.07 766.383 151.376C770.637 147.665 775.223 144.133 780.125 140.828C781.508 139.896 782.921 138.98 784.349 138.093C763.781 131.707 742.552 127.816 720.736 126.764C707.971 132.714 695.988 139.28 684.892 146.432C679.164 150.129 673.691 153.99 668.444 157.972ZM779.132 152.908C805.774 156.635 832.492 163.667 858.983 173.539C838.761 160.512 817.727 149.828 795.926 142C792.228 144.058 788.68 146.207 785.282 148.491C783.162 149.918 781.132 151.406 779.132 152.908ZM1107.14 969.135C1115.06 964.598 1122.07 958.362 1128.2 950.579C1124.58 952.247 1120.94 953.884 1117.24 955.462C1089.55 967.347 1059.85 977.069 1028.59 984.341C1025.51 991.824 1022.02 998.345 1018.1 1003.8C1049.19 995.265 1078.98 983.575 1107.14 969.135ZM1137.87 935.733C1148.15 916.756 1154.93 892.099 1158.42 863.234C1123.66 878.876 1085.59 891.543 1045.03 900.618C1042.95 929.392 1038.83 954.245 1032.41 973.914C1060.96 966.942 1088.15 957.896 1113.59 946.972C1121.87 943.426 1129.96 939.67 1137.87 935.733ZM1159.55 852.566C1160.57 841.327 1161.14 829.547 1161.25 817.255C1161.44 792.688 1159.84 766.183 1156.51 738.385C1122.01 754.373 1084.13 767.295 1043.76 776.566C1046.38 813.604 1047.28 848.224 1046.2 879.041C1046.06 883.098 1045.87 887.095 1045.66 891.017C1086.52 881.686 1124.77 868.643 1159.55 852.566ZM1155.29 728.754C1151.01 696.389 1144.47 662.415 1135.78 627.736C1133.01 616.722 1130.02 605.618 1126.83 594.499C1095.94 607.917 1062.02 618.736 1025.89 626.459C1033.74 675.187 1039.6 722.849 1043.06 767.25C1083.35 757.919 1121.04 744.862 1155.29 728.754ZM1124.25 585.559C1109.92 537.161 1091.64 488.267 1069.78 441.297C1046.59 451.89 1021.02 460.41 993.683 466.495C994.991 471.859 996.284 477.269 997.547 482.663C1007.95 527.184 1017 572.622 1024.41 617.308C1060.2 609.645 1093.73 598.887 1124.25 585.559ZM1065.84 432.943C1064.15 429.397 1062.45 425.866 1060.72 422.35C1040.92 382.111 1018.46 343.6 993.577 308.425C981.309 314.826 967.672 320.07 952.983 323.916C967.01 365.763 979.956 410.945 991.473 457.555C1018.2 451.605 1043.19 443.28 1065.84 432.943ZM988.12 300.837C963.763 267.374 937.196 237.113 908.614 211.584C923.093 242.101 937 277.126 950.006 315.141C963.793 311.58 976.588 306.742 988.12 300.837ZM738.748 119.01C758.053 121.249 776.847 125.652 795.13 131.933C806.947 125.727 820.058 120.573 834.176 116.742C823.471 107.471 812.796 101.716 802.226 100.018C779.779 104.736 758.489 111.152 738.748 119.01ZM807.097 136.335C832.552 146.372 856.954 160.121 880.198 176.905C873.823 165.846 867.343 155.733 860.833 146.748C854.608 138.168 848.354 130.625 842.114 124.224C829.59 127.245 817.848 131.347 807.097 136.335ZM1144.38 942.765C1142.73 945.65 1141 948.415 1139.18 951.044C1153.37 942.269 1167.08 932.773 1180.21 922.586C1168.78 929.738 1156.81 936.469 1144.38 942.765ZM1108.7 978.737L1107.63 979.293L1107.62 979.278C1043.54 1011.48 971.19 1029.64 894.587 1029.64C817.983 1029.64 745.634 1011.49 681.555 979.293V979.308L680.487 978.752C635.247 955.883 594.156 926.027 558.673 890.566C495.857 827.789 450.571 747.521 430.71 657.697C430.033 655.098 429.387 652.499 428.8 649.869L429.026 649.824C422.771 619.126 419.493 587.362 419.493 554.831C419.493 423.747 472.687 305.029 558.673 219.097C644.629 133.18 763.406 80.0187 894.587 80.0187C1025.77 80.0187 1144.56 133.165 1230.53 219.097C1316.5 305.029 1369.69 423.747 1369.69 554.831C1369.69 685.916 1316.5 804.634 1230.52 890.551C1195.03 926.012 1153.93 955.868 1108.7 978.737ZM1001.52 1008.01C1007.74 1003.27 1013.08 996.107 1017.6 986.776C980.016 994.739 940.308 999.157 899.217 999.457V1020.34C934.384 1020 968.604 1015.75 1001.52 1008.01ZM1021.99 976.363C1028.91 957.505 1033.39 932.428 1035.65 902.662C992.51 911.662 946.698 916.651 899.202 916.951V990.232C941.962 989.886 983.173 985.048 1021.99 976.363ZM1036.29 893.075C1036.56 888.387 1036.8 883.609 1036.97 878.711C1038.04 848.569 1037.18 814.761 1034.65 778.594C991.848 787.76 946.367 792.839 899.202 793.154V907.71C946.999 907.395 993.021 902.271 1036.29 893.075ZM1033.98 769.293C1030.56 724.907 1024.72 677.141 1016.85 628.307C979.61 635.655 940.128 639.757 899.217 640.042V783.898C946.187 783.583 991.442 778.474 1033.98 769.293ZM1015.36 619.186C1007.97 574.59 998.945 529.228 988.541 484.766C987.263 479.282 985.955 473.843 984.632 468.403C957.568 473.828 928.912 476.878 899.202 477.163V630.801C939.632 630.501 978.618 626.459 1015.36 619.186ZM941 317.26C927.844 278.914 913.816 243.664 899.202 213.177V321.948C913.741 321.677 927.754 320.055 941 317.26ZM820.749 96.547C828.883 100.589 836.957 106.494 844.956 114.097C859.209 110.987 874.319 109.169 889.971 108.868V90.5968C866.095 90.8222 842.926 92.8808 820.749 96.547ZM852.654 121.94C857.931 127.695 863.148 134.171 868.335 141.309C875.627 151.361 882.859 162.78 889.971 175.372V118.094C877.056 118.364 864.561 119.687 852.654 121.94ZM1189.57 268.441C1188.4 255.309 1185.14 242.522 1179.95 230.231C1139.15 209.09 1095.91 196.258 1051.67 190.593C1054.32 197.204 1056.08 204.086 1056.91 211.133C1105.47 224.716 1150.12 244.16 1189.57 268.441ZM851.406 199.894C812.931 202.704 775.96 208.969 741.018 218.315L740.988 220.043C740.988 227.902 742.371 235.595 744.927 242.958C779.102 225.287 814.871 210.727 851.406 199.894ZM731.742 220.855C682.983 234.784 638.299 254.723 599.102 279.605C599.162 298.643 603.673 317.034 611.987 334.374C631.307 317.11 651.845 300.882 673.436 285.916C693.688 271.882 714.842 258.975 736.658 247.3C733.546 238.841 731.847 229.99 731.742 220.855ZM590.036 285.51C581.045 291.521 572.34 297.786 563.98 304.308C535.444 326.591 510.726 351.834 490.504 379.406C491.06 405.446 497.841 430.554 509.959 454.174C512.906 449.456 515.928 444.738 519.056 440.08C542.886 404.604 571.949 371.187 604.876 340.835C596.095 323.345 590.968 304.773 590.036 285.51ZM481.949 391.622C463.531 419.149 449.488 448.81 440.482 480.139C440.497 510.641 447.278 540.076 459.833 567.874C469.29 532.037 484.49 496.937 504.366 463.385C491.947 440.726 484.234 416.655 481.949 391.622ZM433.416 510.521C430.499 526.974 428.935 543.833 428.83 560.992H428.77C429.191 593.748 433.01 625.693 439.881 656.48C442.693 667.043 446.361 677.426 450.796 687.584C446.541 652.303 448.707 616.903 456.389 582.058C444.812 559.279 436.979 535.328 433.416 510.521ZM939.406 190.773C976.889 193.568 1012.97 199.593 1047.18 208.519C1046.05 201.937 1043.98 195.521 1041.03 189.376C1007.44 185.95 973.37 186.581 939.406 190.773ZM1199.2 274.497C1210.22 281.634 1220.8 289.162 1230.92 297.065C1256.5 317.034 1279.08 339.333 1298.22 363.539C1297.02 347.807 1293.56 332.466 1288.02 317.665C1287.09 315.171 1286.08 312.707 1285.03 310.243C1256.35 279.786 1225.18 255.534 1192.27 236.902C1196.36 249.058 1198.72 261.62 1199.2 274.497ZM1307.96 376.446C1322.98 397.272 1335.49 419.39 1345.25 442.589C1343.95 435.692 1342.36 428.856 1340.41 422.154L1341.14 421.929C1331.54 389.669 1318.52 358.866 1302.5 329.941L1301.21 328.424C1305.62 343.84 1307.96 359.692 1307.96 375.905V376.446ZM1173.31 216.557C1164.66 200.931 1152.9 186.221 1138.49 172.788C1103.84 161.113 1067.96 157.236 1031.69 159.91C1037.8 166.402 1042.94 173.358 1046.98 180.676C1090.37 185.604 1132.92 197.219 1173.31 216.557ZM933.302 182.239C967.386 177.671 1001.65 176.604 1035.45 179.519C1031.15 172.983 1025.87 166.777 1019.71 161.022C990.931 164.268 961.959 171.555 933.302 182.239ZM1186.94 223.409C1216.29 238.916 1244.39 258.659 1270.72 283.046C1266.33 276.044 1261.47 269.192 1256.13 262.506L1256.72 262.04C1246.42 249.344 1235.51 237.203 1223.96 225.648C1215.62 217.309 1206.94 209.3 1197.98 201.607V201.622C1185.14 193.313 1172.03 186.326 1158.69 180.556C1170.57 193.929 1180.09 208.293 1186.94 223.409ZM858.172 207.527C820.524 218.376 783.658 233.251 748.491 251.477C752.34 259.321 757.587 266.773 764.037 273.67C784.034 256.871 804.677 241.335 825.816 227.391C836.491 220.359 847.286 213.733 858.172 207.527ZM740.312 255.79C719.052 267.194 698.424 279.816 678.668 293.504C656.762 308.695 635.908 325.208 616.378 342.803C625.519 359.046 638.043 374.282 653.424 388.136C684.562 348.709 719.533 311.941 756.986 279.635C750.115 272.243 744.491 264.264 740.312 255.79ZM609.401 349.204C577.722 378.655 549.727 410.96 526.724 445.219C522.679 451.244 518.8 457.345 515.071 463.49C527.851 485.458 545.262 505.998 566.612 524.675C588.533 480.244 616.047 436.504 647.741 395.454C631.969 381.314 619.039 365.808 609.401 349.204ZM509.704 472.536C489.632 507.32 474.717 543.727 466.177 580.826C479.589 606.309 497.916 630.245 520.424 652.108C524.949 631.958 530.963 611.538 538.301 591.058C545.202 571.81 553.29 552.487 562.432 533.284C540.902 514.758 523.1 494.353 509.704 472.536ZM463.291 594.68C455.893 634.453 455.923 674.902 464.884 714.84C477.484 735.906 493.556 755.845 512.651 774.327C508.23 739.152 510.41 701.467 518.169 662.701C495.947 641.8 477.439 618.991 463.291 594.68ZM472.763 743.119C479.589 763.539 488.88 783.763 500.833 803.612C506.817 813.048 513.117 822.274 519.747 831.244L519.868 831.154C524.333 836.999 529.069 842.709 534.031 848.314C525.055 829.772 518.74 809.938 514.921 789.112C498.984 774.688 484.866 759.301 472.763 743.119ZM1120.89 158.017C1105.5 146.312 1087.92 135.809 1068.56 126.794C1046.7 127.831 1025.44 131.722 1004.82 138.123C1006.25 139.025 1007.67 139.926 1009.05 140.858C1013.95 144.164 1018.54 147.695 1022.79 151.406C1055.91 148.055 1088.82 149.978 1120.89 158.017ZM930.114 173.569C956.621 163.682 983.369 156.635 1010.03 152.908C1008.03 151.391 1006 149.903 1003.88 148.491C1000.49 146.207 996.945 144.043 993.247 141.985C971.431 149.843 950.352 160.527 930.114 173.569ZM1142.82 164.508C1147.15 165.996 1151.45 167.604 1155.75 169.332C1146.39 163.006 1136.85 156.98 1127.04 151.331C1132.58 155.568 1137.84 159.971 1142.82 164.508ZM862.878 215.461C852.127 221.591 841.468 228.112 830.928 235.069C810.3 248.667 790.168 263.798 770.652 280.161C775.103 284.203 780.004 288.02 785.297 291.581C787.747 293.234 790.303 294.856 792.934 296.389C814.525 266.578 837.904 239.306 862.878 215.461ZM763.556 286.187C726.254 318.282 691.403 354.914 660.415 394.191C667.993 400.487 676.172 406.437 684.908 412.057C694.319 418.127 704.408 423.807 715.023 429.021C716.722 425.445 718.451 421.854 720.195 418.308C740.056 377.949 762.594 339.287 787.537 303.917C785.011 302.414 782.515 300.852 780.14 299.244C774.126 295.172 768.578 290.815 763.556 286.187ZM654.747 401.464C623.068 442.574 595.599 486.389 573.858 530.835C584.413 539.52 595.825 547.784 608.033 555.538C623.038 565.064 639.231 573.809 656.431 581.757C670.835 533.345 689.162 484.421 711.069 437.375C700.078 431.996 689.644 426.121 679.901 419.84C670.94 414.04 662.55 407.91 654.747 401.464ZM569.739 539.4C561.139 557.611 553.501 575.943 546.961 594.184C539.097 616.121 532.798 637.969 528.242 659.47C541.789 671.837 556.673 683.497 572.806 694.345C589.059 705.284 606.575 715.366 625.143 724.547C629.473 692.722 635.938 659.44 644.433 625.512C647.32 613.973 650.477 602.358 653.83 590.713C635.788 582.449 618.798 573.313 603.102 563.336C591.239 555.793 580.098 547.799 569.739 539.4ZM526.137 669.973C518.665 710.002 517.372 748.693 523.491 784.394C543.698 802.365 566.822 818.833 592.442 833.468C601.343 838.547 610.544 843.385 620.016 848.013C619.249 838.171 618.813 827.924 618.708 817.346C618.483 791.471 620.257 763.508 623.88 734.208C603.884 724.487 585.075 713.728 567.664 702.023C552.779 691.986 538.917 681.288 526.137 669.973ZM526.483 799.149C533.023 826.962 544.39 852.686 561.184 875.525C583.526 895.509 609.281 913.45 637.878 928.882C629.443 909.393 623.865 885.653 621.008 858.742C609.567 853.317 598.501 847.562 587.856 841.477C565.454 828.69 544.916 814.506 526.483 799.149ZM1050.47 118.995C1030.71 111.152 1009.44 104.736 986.947 100.003C976.377 101.686 965.687 107.471 954.982 116.727C969.1 120.558 982.211 125.712 994.044 131.918C1012.34 125.637 1031.17 121.234 1050.47 118.995ZM649.966 951.029C648.192 948.445 646.508 945.755 644.884 942.931C632.796 936.83 621.144 930.309 609.988 923.382C622.798 933.269 636.164 942.495 649.966 951.029ZM908.945 176.905C932.204 160.121 956.606 146.357 982.076 136.32C971.295 131.347 959.553 127.245 947.044 124.224C940.789 130.61 934.55 138.138 928.325 146.733C921.815 155.718 915.335 165.846 908.945 176.905ZM880.604 211.539C852.007 237.083 825.41 267.359 801.053 300.837C812.585 306.742 825.395 311.58 839.167 315.141C852.173 277.111 866.11 242.056 880.604 211.539ZM795.581 308.41C770.713 343.585 748.25 382.111 728.449 422.335C726.72 425.851 725.021 429.397 723.337 432.943C745.965 443.265 770.953 451.59 797.685 457.54C809.202 410.945 822.163 365.748 836.175 323.901C821.501 320.07 807.849 314.826 795.581 308.41ZM719.413 441.297C697.552 488.252 679.269 537.176 664.941 585.559C695.462 598.887 728.975 609.66 764.774 617.323C772.186 572.637 781.237 527.199 791.641 482.678C792.904 477.269 794.197 471.874 795.505 466.51C768.172 460.41 742.597 451.875 719.413 441.297ZM662.325 594.499C659.137 605.618 656.13 616.722 653.379 627.736C644.689 662.415 638.148 696.404 633.863 728.754C668.113 744.877 705.806 757.919 746.085 767.265C749.528 722.849 755.407 675.172 763.255 626.444C727.141 618.736 693.237 607.917 662.325 594.499ZM632.661 738.385C629.338 766.168 627.714 792.688 627.925 817.255C628.03 829.562 628.601 841.342 629.624 852.566C664.385 868.659 702.649 881.686 743.529 891.017C743.304 887.08 743.123 883.098 742.988 879.041C741.89 848.208 742.792 813.589 745.409 776.551C705.039 767.295 667.166 754.373 632.661 738.385ZM630.751 863.234C634.254 892.174 641.05 916.891 651.379 935.883C659.634 939.985 668.083 943.907 676.758 947.589C701.882 958.272 728.69 967.167 756.79 974.004C750.355 954.32 746.22 929.438 744.146 900.618C703.596 891.543 665.512 878.891 630.751 863.234ZM661.107 950.729C667.181 958.377 674.082 964.553 681.9 969.045C710.091 983.53 739.936 995.235 771.088 1003.78C767.164 998.33 763.676 991.824 760.609 984.356C729.802 977.219 700.499 967.693 673.135 956.063C669.076 954.35 665.061 952.562 661.107 950.729ZM968.409 96.547C946.232 92.9108 923.078 90.8373 899.202 90.5968V108.868C914.854 109.169 929.964 110.987 944.217 114.097C952.201 106.494 960.29 100.589 968.409 96.547ZM899.202 175.402C906.314 162.81 913.546 151.376 920.838 141.324C926.01 134.186 931.242 127.71 936.519 121.956C924.612 119.717 912.102 118.364 899.202 118.109V175.402ZM889.956 213.222C875.357 243.709 861.314 278.929 848.158 317.275C861.404 320.07 875.417 321.677 889.956 321.963V213.222ZM845.196 326.065C831.214 367.761 818.254 412.898 806.737 459.448C833.093 464.692 861.013 467.637 889.956 467.923V331.204C874.394 330.918 859.374 329.13 845.196 326.065ZM804.541 468.403C803.218 473.843 801.925 479.297 800.632 484.766C790.243 529.228 781.207 574.59 773.81 619.186C810.556 626.444 849.541 630.501 889.956 630.786V477.163C860.276 476.878 831.605 473.813 804.541 468.403ZM772.321 628.307C764.458 677.141 758.609 724.907 755.196 769.293C797.731 778.474 842.986 783.583 889.971 783.898V640.042C849.045 639.757 809.563 635.655 772.321 628.307ZM754.505 778.594C751.994 814.776 751.122 848.584 752.189 878.711C752.355 883.609 752.595 888.387 752.881 893.06C796.137 902.256 842.174 907.38 889.956 907.68V793.124C842.791 792.839 797.31 787.76 754.505 778.594ZM753.513 902.632C755.783 932.443 760.248 957.566 767.194 976.423C806.03 985.093 847.226 989.916 889.956 990.247V916.936C842.475 916.636 796.678 911.632 753.513 902.632ZM771.6 986.821C776.125 996.122 781.448 1003.29 787.657 1008.01C820.554 1015.75 854.774 1020.01 889.956 1020.36V999.457C848.88 999.142 809.187 994.754 771.6 986.821Z" fill="#130057"/>
<path d="M1158.29 626.159L1024.04 760.562L962.527 822.145L766.76 626.159L828.274 564.576L919.023 655.427V560.831C919.023 416.76 801.911 299.517 658 299.517V212.412C750.303 212.412 838.826 249.12 904.095 314.461C969.363 379.803 1006.03 468.424 1006.03 560.831V655.427L1096.78 564.576L1158.29 626.159ZM396.977 560.831V466.235L487.726 557.085L549.24 495.502L353.473 299.517L291.959 361.1L157.706 495.502L219.22 557.085L309.969 466.235V560.831C309.969 653.237 346.637 741.859 411.905 807.2C477.174 872.542 565.697 909.25 658 909.25V822.145C514.089 822.145 396.977 704.902 396.977 560.831Z" fill="#0080AE" fill-opacity="0.38"/>
</g>
<defs>
<clipPath id="clip0_102_6">
<rect width="1790" height="1265" fill="white" transform="translate(0 -77)"/>
</clipPath>
</defs>
</svg>
