<svg width="100" height="100" viewBox="0 0 100 100" fill="none" xmlns="http://www.w3.org/2000/svg">
<path d="M66.6667 12.5V29.1667M33.3333 12.5V29.1667M16.6667 45.8333H83.3333M45.8333 62.5H50V75M16.6667 29.1667C16.6667 26.9565 17.5446 24.8369 19.1074 23.2741C20.6702 21.7113 22.7899 20.8333 25 20.8333H75C77.2101 20.8333 79.3297 21.7113 80.8925 23.2741C82.4554 24.8369 83.3333 26.9565 83.3333 29.1667V79.1667C83.3333 81.3768 82.4554 83.4964 80.8925 85.0592C79.3297 86.622 77.2101 87.5 75 87.5H25C22.7899 87.5 20.6702 86.622 19.1074 85.0592C17.5446 83.4964 16.6667 81.3768 16.6667 79.1667V29.1667Z" stroke="white" stroke-width="6" stroke-linecap="round" stroke-linejoin="round"/>
</svg>
