<svg width="100" height="100" viewBox="0 0 100 100" fill="none" xmlns="http://www.w3.org/2000/svg">
<path opacity="0.2" d="M84.375 18.75V34.375H15.625V18.75C15.625 17.9212 15.9542 17.1263 16.5403 16.5403C17.1263 15.9542 17.9212 15.625 18.75 15.625H81.25C82.0788 15.625 82.8737 15.9542 83.4597 16.5403C84.0458 17.1263 84.375 17.9212 84.375 18.75Z" fill="white"/>
<path d="M81.25 12.5H71.875V9.375C71.875 8.5462 71.5458 7.75134 70.9597 7.16529C70.3737 6.57924 69.5788 6.25 68.75 6.25C67.9212 6.25 67.1263 6.57924 66.5403 7.16529C65.9542 7.75134 65.625 8.5462 65.625 9.375V12.5H34.375V9.375C34.375 8.5462 34.0458 7.75134 33.4597 7.16529C32.8737 6.57924 32.0788 6.25 31.25 6.25C30.4212 6.25 29.6263 6.57924 29.0403 7.16529C28.4542 7.75134 28.125 8.5462 28.125 9.375V12.5H18.75C17.0924 12.5 15.5027 13.1585 14.3306 14.3306C13.1585 15.5027 12.5 17.0924 12.5 18.75V81.25C12.5 82.9076 13.1585 84.4973 14.3306 85.6694C15.5027 86.8415 17.0924 87.5 18.75 87.5H81.25C82.9076 87.5 84.4973 86.8415 85.6694 85.6694C86.8415 84.4973 87.5 82.9076 87.5 81.25V18.75C87.5 17.0924 86.8415 15.5027 85.6694 14.3306C84.4973 13.1585 82.9076 12.5 81.25 12.5ZM28.125 18.75V21.875C28.125 22.7038 28.4542 23.4987 29.0403 24.0847C29.6263 24.6708 30.4212 25 31.25 25C32.0788 25 32.8737 24.6708 33.4597 24.0847C34.0458 23.4987 34.375 22.7038 34.375 21.875V18.75H65.625V21.875C65.625 22.7038 65.9542 23.4987 66.5403 24.0847C67.1263 24.6708 67.9212 25 68.75 25C69.5788 25 70.3737 24.6708 70.9597 24.0847C71.5458 23.4987 71.875 22.7038 71.875 21.875V18.75H81.25V31.25H18.75V18.75H28.125ZM81.25 81.25H18.75V37.5H81.25V81.25ZM43.75 46.875V71.875C43.75 72.7038 43.4208 73.4987 42.8347 74.0847C42.2487 74.6708 41.4538 75 40.625 75C39.7962 75 39.0013 74.6708 38.4153 74.0847C37.8292 73.4987 37.5 72.7038 37.5 71.875V51.9297L35.7734 52.7969C35.0317 53.1678 34.1729 53.2288 33.3862 52.9665C32.5994 52.7043 31.949 52.1402 31.5781 51.3984C31.2072 50.6567 31.1462 49.7979 31.4085 49.0112C31.6707 48.2244 32.2348 47.574 32.9766 47.2031L39.2266 44.0781C39.7032 43.8396 40.2329 43.727 40.7653 43.7509C41.2977 43.7748 41.8151 43.9345 42.2684 44.2148C42.7217 44.4951 43.0958 44.8866 43.3551 45.3522C43.6145 45.8179 43.7504 46.342 43.75 46.875ZM66.8594 58.7695L59.375 68.75H65.625C66.4538 68.75 67.2487 69.0792 67.8347 69.6653C68.4208 70.2513 68.75 71.0462 68.75 71.875C68.75 72.7038 68.4208 73.4987 67.8347 74.0847C67.2487 74.6708 66.4538 75 65.625 75H53.125C52.5447 75 51.9758 74.8384 51.4821 74.5333C50.9884 74.2282 50.5895 73.7916 50.3299 73.2725C50.0704 72.7535 49.9605 72.1724 50.0126 71.5944C50.0647 71.0163 50.2768 70.4643 50.625 70L61.8672 55.0117C62.1229 54.6713 62.3064 54.2822 62.4063 53.8683C62.5062 53.4545 62.5205 53.0245 62.4483 52.6049C62.3761 52.1853 62.2189 51.7849 61.9864 51.4282C61.7539 51.0716 61.4509 50.7662 61.0961 50.5308C60.7414 50.2954 60.3422 50.135 59.9232 50.0595C59.5042 49.9839 59.0742 49.9948 58.6595 50.0914C58.2448 50.188 57.8543 50.3683 57.5118 50.6213C57.1694 50.8743 56.8822 51.1946 56.668 51.5625C56.4688 51.9292 56.1983 52.2524 55.8722 52.5128C55.5462 52.7733 55.1713 52.9658 54.7696 53.079C54.368 53.1923 53.9477 53.2239 53.5336 53.1721C53.1195 53.1202 52.7201 52.986 52.3587 52.7773C51.9973 52.5685 51.6814 52.2896 51.4297 51.9568C51.1779 51.624 50.9953 51.2441 50.8927 50.8396C50.7901 50.4352 50.7695 50.0142 50.8322 49.6016C50.8949 49.1891 51.0396 48.7932 51.2578 48.4375C52.2901 46.6511 53.8828 45.2552 55.7891 44.466C57.6954 43.6769 59.8088 43.5386 61.8017 44.0726C63.7945 44.6067 65.5556 45.7832 66.8118 47.4198C68.0681 49.0565 68.7493 51.0618 68.75 53.125C68.7566 55.1631 68.0922 57.1466 66.8594 58.7695Z" fill="white"/>
</svg>
